<svg xmlns="http://www.w3.org/2000/svg" width="128" height="128"><g><path fill="none" stroke="#000" stroke-width="5" stroke-miterlimit="10" d="M124.32 67.64l-.08-.1-.1-.11-5.97-6.83a3.6 3.6 0 00-2.8-1.35H82.9l-4.29-25.22V34l-.01-.03a3.9 3.9 0 00-1.35-2.28l-.11-.09-.13-.08L47.44 11.8a5.02 5.02 0 00-2.95-.77h-1.02a4.5 4.5 0 00-2.28.44c-.24.09-.48.2-.7.35l-29.54 19.7-.12.08-.1.1a3.91 3.91 0 00-1.36 2.27V34l-.01.03L3 71.4a3.88 3.88 0 005.95 3.97l12.37 35.27.68 1.95H49.1l54.52.4 1.36.01.88-1.04 12.66-14.93c.13-.16.25-.33.35-.51l2.28-.02a3.47 3.47 0 003.43-3.09l.01-.13v-.13l.48-22.93c.06-.91-.2-1.82-.74-2.58z"/><linearGradient id="e" gradientUnits="userSpaceOnUse" x1="64.01" y1="52.42" x2="64.01" y2="111.42"><stop offset=".11" stop-color="#0af"/><stop offset=".37" stop-color="#01a7ff"/><stop offset=".52" stop-color="#059fff"/><stop offset=".65" stop-color="#0b91ff"/><stop offset=".76" stop-color="#137dff"/><stop offset=".87" stop-color="#1f62ff"/><stop offset=".96" stop-color="#2c42ff"/><stop offset="1" stop-color="#33f"/></linearGradient><path fill="url(#e)" d="M49.31 111H23.23L9.84 72.86l32.58-20.02a2.76 2.76 0 012.85-.03l34.2 20.06-7.76 18.96 44.33.58c.85.01 1.59.5 1.94 1.26.35.77.22 1.65-.32 2.29l-13.11 15.47L49.3 111z"/><path fill="#0000B2" d="M43.87 53.92c.22 0 .44.06.64.17L77.6 73.5l-8.1 19.8 46.53.6c.56.02.85.66.5 1.09l-12.67 14.93-54.53-.4H24.3L11.66 73.5 43.2 54.1c.2-.12.43-.18.66-.18m0-3c-.79 0-1.56.22-2.24.63L10.1 70.95 8.03 72.2l.8 2.28 12.63 36.01.7 2h27.16l54.51.41 1.4.01.91-1.07 12.66-14.93a3.67 3.67 0 00-2.74-6.02l-42.12-.55 6.43-15.72.98-2.4-2.24-1.32-33.08-19.4a4.27 4.27 0 00-2.16-.6z"/><path d="M89.84 102.3h-6.7l5.55-8.4h6.7zM99.23 102.3h-6.7l5.55-8.4h6.7z"/><linearGradient id="f" gradientUnits="userSpaceOnUse" x1="97.21" y1="60.49" x2="97.21" y2="95.39"><stop offset=".2" stop-color="#33f"/><stop offset=".2" stop-color="#2c42ff"/><stop offset=".21" stop-color="#1f62ff"/><stop offset=".23" stop-color="#137dff"/><stop offset=".24" stop-color="#0b91ff"/><stop offset=".25" stop-color="#059fff"/><stop offset=".27" stop-color="#01a7ff"/><stop offset=".3" stop-color="#0af"/></linearGradient><path fill="url(#f)" d="M72.4 95.4a1.86 1.86 0 01-1.75-2.5l12.5-32.4h32.44c.68 0 1.31.3 1.73.83l6.04 6.91.05.06c.35.5.51 1.09.47 1.69l-.48 23.03v.07a2.07 2.07 0 01-2.06 1.83l-48.94.48z"/><path fill="#0000B2" d="M115.6 62c.22 0 .43.1.56.28l6.03 6.9c.15.2.22.47.19.72l-.48 23.02a.57.57 0 01-.56.5l-48.95.47a.35.35 0 01-.33-.47L84.18 62h31.42m0-3H82.13l-.74 1.92-12.13 31.43v.02l-.01.03a3.35 3.35 0 003.14 4.5l48.98-.47c1.78 0 3.3-1.36 3.51-3.15l.02-.15v-.14l.47-22.92c.07-.94-.2-1.87-.74-2.63l-.09-.12-.1-.11-5.97-6.83a3.7 3.7 0 00-2.87-1.38z"/><linearGradient id="g" gradientUnits="userSpaceOnUse" x1="43" y1="54.08" x2="10.2" y2="35.14"><stop offset=".11" stop-color="#0af"/><stop offset=".28" stop-color="#04a6ff"/><stop offset=".47" stop-color="#0e99ff"/><stop offset=".67" stop-color="#2083ff"/><stop offset=".87" stop-color="#3965ff"/><stop offset="1" stop-color="#4d4dff"/></linearGradient><path fill="url(#g)" d="M7.07 74.42a2.5 2.5 0 01-2.45-2.96l6.35-37.36c.12-.6.42-1.12.87-1.48l.06-.05L41.9 12.55l.53-.02c.9 0 1.64.73 1.64 1.64v37.37c0 .76-.34 1.46-.92 1.94l-.09.07-34.54 20.4c-.43.3-.93.47-1.46.47z"/><path fill="#0000B2" d="M42.44 14.03c.07 0 .14.06.14.14v37.37a1 1 0 01-.36.77L7.69 72.7a1 1 0 01-1.6-.95l6.36-37.4a1 1 0 01.34-.58l29.57-19.72a.15.15 0 01.08-.02m0-3c-.64 0-1.25.19-1.78.55l-29.53 19.7-.13.08-.12.1a4 4 0 00-1.37 2.32l-.01.03v.04L3.13 71.22a3.97 3.97 0 003.93 4.7 4 4 0 002.28-.72l34.39-20.3.2-.12.17-.14a3.97 3.97 0 001.47-3.1V14.17c0-1.73-1.4-3.14-3.14-3.14z"/><g><linearGradient id="h" gradientUnits="userSpaceOnUse" x1="78.22" y1="35.14" x2="45.42" y2="54.08"><stop offset="0" stop-color="#4d4dff"/><stop offset=".13" stop-color="#3965ff"/><stop offset=".33" stop-color="#2083ff"/><stop offset=".53" stop-color="#0e99ff"/><stop offset=".72" stop-color="#04a6ff"/><stop offset=".89" stop-color="#0af"/></linearGradient><path fill="url(#h)" d="M81.35 74.42c-.53 0-1.03-.16-1.46-.48l-34.54-20.4-.09-.06a2.48 2.48 0 01-.92-1.94V14.17c0-.9.74-1.64 1.64-1.64h.46l.46.28 29.63 19.76.06.05c.44.37.75.89.85 1.45l6.37 37.42a2.5 2.5 0 01-2.46 2.93z"/><path fill="#0000B2" d="M45.98 14.03c.03 0 .05 0 .08.02l29.57 19.72a1 1 0 01.34.58l6.36 37.4a1 1 0 01-1.6.95L46.21 52.3a.99.99 0 01-.37-.77V14.17c0-.08.07-.14.14-.14m0-3a3.14 3.14 0 00-3.14 3.14v37.37c0 1.2.54 2.34 1.47 3.1l.18.14.2.11L79.07 75.2a4 4 0 006.2-3.98l-6.35-37.37v-.03l-.01-.03a4 4 0 00-1.37-2.33l-.13-.1-.13-.09-29.57-19.72a3.13 3.13 0 00-1.74-.52z"/></g><path d="M48.3 112.62h-9.54l-1.6-11.26a5.75 5.75 0 013.13-5.13c1.91-.98 4.17-1 6.1-.07l.22.1a5.76 5.76 0 013.25 5.19l-1.55 11.17zM47.2 78.19h-7.36l-1.23-8.55c0-1.64.93-3.14 2.41-3.89a5.37 5.37 0 014.72-.05l.16.08a4.37 4.37 0 012.5 3.93l-1.2 8.48z"/><g><path fill="#0000B2" d="M44.75 14.03h-1c-1.37 0-2.49-.57-2.49-1.27 0 0 .01-1.16.05-1.2.3-.36 1.14-.6 2.44-.6h1c1.37 0 2.49.38 2.49.66v1.14c0 .7-1.12 1.27-2.49 1.27z"/></g></g></svg>