<svg xmlns="http://www.w3.org/2000/svg" width="128" height="128"><g><path fill="none" stroke="#000" stroke-width="5" stroke-miterlimit="10" d="M124.32 68.1l-.08-.11-.1-.1-5.97-6.84a3.6 3.6 0 00-2.8-1.34H82.9l-4.29-25.23v-.03l-.01-.03a3.9 3.9 0 00-1.35-2.27l-.11-.1-.13-.07-29.57-19.73a5.02 5.02 0 00-2.95-.77h-1.02a4.5 4.5 0 00-2.28.45c-.24.08-.48.2-.7.34l-29.54 19.7-.12.08-.1.1a3.91 3.91 0 00-1.36 2.27v.03l-.01.03L3 71.86a3.88 3.88 0 005.95 3.96l12.37 35.27.68 1.95H49.1l54.52.4 1.36.02.88-1.04 12.66-14.94c.13-.16.25-.33.35-.5l2.28-.03a3.47 3.47 0 003.43-3.08l.01-.14v-.13l.48-22.92c.06-.92-.2-1.83-.74-2.58z"/><linearGradient id="e" gradientUnits="userSpaceOnUse" x1="64.01" y1="52.87" x2="64.01" y2="111.87"><stop offset=".11" stop-color="#00ff1a"/><stop offset=".39" stop-color="#02fc1c"/><stop offset=".56" stop-color="#09f422"/><stop offset=".7" stop-color="#15e62d"/><stop offset=".82" stop-color="#26d23c"/><stop offset=".93" stop-color="#3cb850"/><stop offset="1" stop-color="#4da45f"/></linearGradient><path fill="url(#e)" d="M49.31 111.46H23.23L9.84 73.31l32.58-20.03a2.76 2.76 0 012.85-.03l34.2 20.07-7.76 18.95 44.33.58c.85.02 1.59.5 1.94 1.27.35.76.22 1.64-.32 2.28l-13.11 15.47-55.24-.4z"/><path fill="#086800" d="M43.87 54.37c.22 0 .44.06.64.18l33.08 19.4-8.1 19.8 46.53.6c.56.01.85.66.5 1.08l-12.67 14.94-54.53-.4H24.3L11.66 73.94 43.2 54.56c.2-.13.43-.19.66-.19m0-3c-.79 0-1.56.22-2.24.64L10.1 71.39l-2.06 1.27.8 2.28 12.63 36.01.7 2.01h27.16l54.51.4 1.4.02.91-1.07 12.66-14.94a3.67 3.67 0 00-2.74-6.02l-42.12-.55 6.43-15.71.98-2.41-2.24-1.32-33.08-19.4a4.27 4.27 0 00-2.16-.59z"/><path d="M89.84 102.76h-6.7l5.55-8.41h6.7zM99.23 102.76h-6.7l5.55-8.41h6.7z"/><linearGradient id="f" gradientUnits="userSpaceOnUse" x1="97.21" y1="60.95" x2="97.21" y2="95.85"><stop offset=".2" stop-color="#4da45f"/><stop offset=".21" stop-color="#3cb850"/><stop offset=".22" stop-color="#26d23c"/><stop offset=".23" stop-color="#15e62d"/><stop offset=".25" stop-color="#09f422"/><stop offset=".27" stop-color="#02fc1c"/><stop offset=".3" stop-color="#00ff1a"/></linearGradient><path fill="url(#f)" d="M72.4 95.85a1.86 1.86 0 01-1.75-2.5l12.5-32.4h32.44c.68 0 1.31.31 1.73.83l6.04 6.92.05.06c.35.49.51 1.08.47 1.68l-.48 23.04v.07a2.07 2.07 0 01-2.06 1.83l-48.94.47z"/><path fill="#086800" d="M115.6 62.45c.22 0 .43.1.56.28l6.03 6.9c.15.21.22.47.19.73l-.48 23.01a.57.57 0 01-.56.5l-48.95.48a.35.35 0 01-.33-.48l12.12-31.42h31.42m0-3H82.13l-.74 1.92-12.13 31.42v.03l-.01.02a3.35 3.35 0 003.14 4.5l48.98-.47c1.78 0 3.3-1.35 3.51-3.15l.02-.14v-.15l.47-22.92c.07-.94-.2-1.87-.74-2.63l-.09-.12-.1-.1-5.97-6.84a3.7 3.7 0 00-2.87-1.37z"/><linearGradient id="g" gradientUnits="userSpaceOnUse" x1="43" y1="54.53" x2="10.2" y2="35.59"><stop offset=".11" stop-color="#00ff1a"/><stop offset=".29" stop-color="#04fb1d"/><stop offset=".48" stop-color="#0fee27"/><stop offset=".68" stop-color="#21d837"/><stop offset=".88" stop-color="#3aba4e"/><stop offset="1" stop-color="#4da45f"/></linearGradient><path fill="url(#g)" d="M7.07 74.88a2.5 2.5 0 01-2.45-2.97l6.35-37.36c.12-.6.42-1.11.87-1.48l.06-.05L41.9 13.01l.53-.03c.9 0 1.64.74 1.64 1.64V52c0 .75-.34 1.45-.92 1.93l-.09.07L8.53 74.4c-.43.31-.93.48-1.46.48z"/><path fill="#086800" d="M42.44 14.48c.07 0 .14.06.14.14V52a1 1 0 01-.36.76L7.69 73.16a1 1 0 01-1.6-.95l6.36-37.4a1 1 0 01.34-.59L42.36 14.5a.16.16 0 01.08-.02m0-3c-.64 0-1.25.2-1.78.55l-29.53 19.7-.13.09-.12.1a4 4 0 00-1.37 2.31l-.01.04v.03L3.13 71.67a3.97 3.97 0 003.93 4.7 4 4 0 002.28-.71l34.39-20.31.2-.12.17-.14a3.97 3.97 0 001.47-3.1V14.63c0-1.73-1.4-3.14-3.14-3.14z"/><g><linearGradient id="h" gradientUnits="userSpaceOnUse" x1="78.22" y1="35.59" x2="45.42" y2="54.53"><stop offset="0" stop-color="#4da45f"/><stop offset=".12" stop-color="#3aba4e"/><stop offset=".32" stop-color="#21d837"/><stop offset=".52" stop-color="#0fee27"/><stop offset=".71" stop-color="#04fb1d"/><stop offset=".89" stop-color="#00ff1a"/></linearGradient><path fill="url(#h)" d="M81.35 74.88c-.53 0-1.03-.17-1.46-.48L45.35 54l-.09-.07a2.48 2.48 0 01-.92-1.93V14.62c0-.9.74-1.64 1.64-1.64h.46l.46.29 29.63 19.75.06.05c.44.37.75.89.85 1.46l6.37 37.42a2.5 2.5 0 01-2.46 2.93z"/><path fill="#086800" d="M45.98 14.48c.03 0 .05.01.08.03l29.57 19.72a1 1 0 01.34.57l6.36 37.4a1 1 0 01-1.6.95L46.21 52.76a.99.99 0 01-.37-.76V14.62c0-.08.07-.14.14-.14m0-3a3.14 3.14 0 00-3.14 3.14V52c0 1.2.54 2.33 1.47 3.1l.18.13.2.12 34.39 20.3a4 4 0 006.2-3.98L78.93 34.3v-.03l-.01-.02a4 4 0 00-1.37-2.33l-.13-.1-.13-.1-29.57-19.71a3.11 3.11 0 00-1.74-.53z"/></g><path d="M48.3 113.07h-9.54l-1.6-11.26a5.75 5.75 0 013.13-5.12c1.91-.98 4.17-1 6.1-.07l.22.1a5.76 5.76 0 013.25 5.18l-1.55 11.17zM47.2 78.64h-7.36l-1.23-8.54c0-1.64.93-3.15 2.41-3.9a5.37 5.37 0 014.72-.05l.16.08a4.37 4.37 0 012.5 3.94l-1.2 8.47z"/><g><path fill="#086800" d="M44.75 14.48h-1c-1.37 0-2.49-.57-2.49-1.27 0 0 .01-1.16.05-1.2.3-.35 1.14-.6 2.44-.6h1c1.37 0 2.49.39 2.49.66v1.14c0 .7-1.12 1.27-2.49 1.27z"/></g></g></svg>