<svg xmlns="http://www.w3.org/2000/svg" width="128" height="128"><g><path fill="none" stroke="#000" stroke-width="5" stroke-miterlimit="10" d="M124.32 67.83l-.08-.12-.1-.1-5.97-6.83a3.6 3.6 0 00-2.8-1.35H82.9l-4.29-25.22v-.03l-.01-.03a3.9 3.9 0 00-1.35-2.27l-.11-.1-.13-.08-29.56-19.72a5 5 0 00-2.94-.77h-1.04c-1.1 0-1.86.18-2.28.44-.24.1-.48.2-.7.35L10.95 31.7l-.12.08-.11.1a3.91 3.91 0 00-1.35 2.27v.03l-.01.03L3 71.58a3.88 3.88 0 005.95 3.97l12.37 35.27.68 1.95H49.1l54.52.4 1.36.01.88-1.04 12.66-14.93c.13-.16.25-.33.35-.5l2.28-.03a3.47 3.47 0 003.43-3.08l.01-.14v-.13l.48-22.93c.06-.91-.2-1.82-.74-2.57z"/><linearGradient id="e" gradientUnits="userSpaceOnUse" x1="63.78" y1="52.77" x2="63.78" y2="111.77"><stop offset=".11" stop-color="#ff0"/><stop offset=".26" stop-color="#fffb00"/><stop offset=".42" stop-color="#fe0"/><stop offset=".59" stop-color="#ffd800"/><stop offset=".75" stop-color="#ffba00"/><stop offset=".92" stop-color="#ff9400"/><stop offset="1" stop-color="#ff8000"/></linearGradient><path fill="url(#e)" d="M49.08 111.36H23L9.62 73.2 42.2 53.18a2.77 2.77 0 012.84-.03l34.2 20.06-7.75 18.96 44.33.58c.84.01 1.58.5 1.93 1.26.35.76.22 1.64-.32 2.28l-13.11 15.48-55.24-.41z"/><path fill="#B25900" d="M43.64 54.27c.23 0 .45.06.64.17l33.09 19.4-8.1 19.8 46.53.6c.55.02.84.66.49 1.09l-12.66 14.93-54.54-.4H24.06L11.43 73.85l31.55-19.4c.2-.12.43-.18.66-.18m0-3c-.78 0-1.56.21-2.23.63L9.86 71.3 7.8 72.55l.8 2.28 12.63 36.01.7 2H49.1l54.52.41 1.4.01.9-1.07 12.67-14.93a3.67 3.67 0 00.53-3.88 3.62 3.62 0 00-3.28-2.14l-42.12-.55 6.43-15.72.99-2.4-2.25-1.32-33.08-19.4a4.28 4.28 0 00-2.16-.6z"/><path d="M89.6 102.66h-6.7l5.56-8.42h6.7zM99 102.66h-6.7l5.55-8.42h6.7z"/><linearGradient id="f" gradientUnits="userSpaceOnUse" x1="96.99" y1="60.84" x2="96.99" y2="95.74"><stop offset=".2" stop-color="#ff8000"/><stop offset=".3" stop-color="#ff0"/></linearGradient><path fill="url(#f)" d="M72.17 95.74a1.85 1.85 0 01-1.74-2.49l12.5-32.4h32.44c.67 0 1.3.3 1.72.83l6.04 6.9.04.06c.36.5.52 1.1.48 1.7l-.48 23.03v.07a2.07 2.07 0 01-2.06 1.83l-48.94.47z"/><path fill="#B25900" d="M115.37 62.34c.22 0 .43.11.56.29l6.03 6.9c.15.2.22.46.19.72l-.48 23.02a.57.57 0 01-.56.5l-48.94.47a.35.35 0 01-.33-.47l12.12-31.43h31.4m0-3H81.9l-.74 1.92L69.04 92.7l-.01.03-.01.02a3.35 3.35 0 003.15 4.5l48.97-.47c1.78 0 3.3-1.36 3.51-3.15l.02-.15v-.14l.48-22.92c.06-.95-.2-1.88-.76-2.65l-.08-.1-.1-.11-5.97-6.84a3.7 3.7 0 00-2.87-1.37z"/><linearGradient id="g" gradientUnits="userSpaceOnUse" x1="42.78" y1="54.43" x2="9.98" y2="35.49"><stop offset=".11" stop-color="#ff0"/><stop offset=".26" stop-color="#fffb00"/><stop offset=".42" stop-color="#fe0"/><stop offset=".59" stop-color="#ffd800"/><stop offset=".75" stop-color="#ffba00"/><stop offset=".92" stop-color="#ff9400"/><stop offset="1" stop-color="#ff8000"/></linearGradient><path fill="url(#g)" d="M6.84 74.77a2.5 2.5 0 01-2.45-2.96l6.36-37.36c.1-.6.42-1.12.87-1.49l.05-.05 30.01-20 .53-.03c.9 0 1.64.73 1.64 1.63V51.9c0 .75-.33 1.46-.92 1.93l-.08.07L8.3 74.3c-.43.32-.93.48-1.46.48z"/><path fill="#B25900" d="M42.22 14.38c.07 0 .13.05.13.14v37.37a1 1 0 01-.36.77L7.46 73.05a.97.97 0 01-.62.22 1 1 0 01-.98-1.18l6.36-37.39a.98.98 0 01.35-.58L42.14 14.4a.15.15 0 01.08-.02m0-3c-.64 0-1.25.19-1.77.54L10.9 31.62l-.12.09-.11.1a3.99 3.99 0 00-1.4 2.33v.06L2.9 71.57a3.97 3.97 0 003.93 4.7c.81 0 1.61-.25 2.28-.72l34.4-20.3.19-.12.17-.14a3.97 3.97 0 001.47-3.1V14.52c0-1.73-1.4-3.14-3.13-3.14z"/><g><linearGradient id="h" gradientUnits="userSpaceOnUse" x1="77.99" y1="35.49" x2="45.19" y2="54.43"><stop offset=".07" stop-color="#ff8000"/><stop offset=".1" stop-color="#ff8700"/><stop offset=".26" stop-color="#ffad00"/><stop offset=".43" stop-color="#ffcb00"/><stop offset=".59" stop-color="#ffe100"/><stop offset=".74" stop-color="#fe0"/><stop offset=".89" stop-color="#fff200"/></linearGradient><path fill="url(#h)" d="M81.13 74.77c-.53 0-1.04-.16-1.47-.48L45.12 53.9l-.09-.07a2.48 2.48 0 01-.92-1.93V14.52c0-.9.74-1.64 1.64-1.64h.47l.45.28L76.3 32.92l.05.05c.45.37.76.88.87 1.45l6.36 37.42c.14.7-.05 1.45-.52 2.02a2.5 2.5 0 01-1.94.91z"/><path fill="#B25900" d="M45.75 14.38c.03 0 .06 0 .08.02L75.4 34.12c.18.15.3.35.34.58l6.36 37.4a1 1 0 01-1.6.95L45.98 52.66a1 1 0 01-.37-.77V14.52c0-.08.07-.14.14-.14m0-3a3.14 3.14 0 00-3.14 3.14v37.37c0 1.2.54 2.34 1.48 3.1l.17.14.2.11 34.39 20.31a4 4 0 006.2-3.98L78.7 34.2v-.03l-.01-.03a4 4 0 00-1.38-2.33l-.12-.1-.13-.08L47.5 11.9a3.1 3.1 0 00-1.74-.53z"/></g><g><path fill="#B25900" d="M44.5 14.38h-1.03c-1.41 0-2.57-.59-2.57-1.3 0 0 .02-1.2.05-1.25.31-.36 1.18-.62 2.52-.62h1.03c1.41 0 2.56.4 2.56.68v1.18c0 .72-1.15 1.3-2.56 1.3z"/></g><path d="M48.08 112.9h-9.55l-1.6-11.26a5.76 5.76 0 013.13-5.13c1.91-.98 4.17-1 6.11-.07l.2.1a5.76 5.76 0 013.26 5.19l-1.55 11.17zM46.98 78.54h-7.36l-1.24-8.55c0-1.64.93-3.14 2.42-3.89a5.37 5.37 0 014.7-.05l.17.08a4.37 4.37 0 012.5 3.93l-1.19 8.48z"/></g></svg>