<svg xmlns="http://www.w3.org/2000/svg" width="107.764" height="107.764"><g opacity=".2" stroke="#000" stroke-width="2" stroke-miterlimit="10"><path d="M14.986 44.547h83.448c1.602 0 2.162-2.123.771-2.914L57.968 18.209c-.472-.27-1.051-.271-1.526-.008L14.229 41.625c-1.407.781-.853 2.922.757 2.922zM14.341 50.421h84.625c.242 0 .438-.196.438-.438v-2.125c0-.241-.195-.438-.438-.438H14.341c-.242 0-.438.195-.438.438v2.125c0 .242.196.438.438.438zM14.366 98.919H99.053a.407.407 0 00.406-.406v-2.188c0-.225-.183-.406-.406-.406h-6.65v-.75h2.842c.506 0 .87-.487.726-.974l-1.552-5.234c-.095-.321-.392-.542-.728-.542h-1.289V57.588h1.227c.335 0 .631-.221.726-.542l1.553-5.235c.144-.484-.221-.973-.728-.973h-2.778v-.168h-70.75v.168H19c-.506 0-.87.487-.727.973l1.553 5.235a.759.759 0 00.727.542h1.101v30.831h-1.038c-.336 0-.632.221-.727.542l-1.552 5.234c-.145.485.22.974.727.974h2.59v.75h-7.287c-.225 0-.406.183-.406.406v2.188c-.001.224.181.406.405.406zM102.874 101.669H11.182c-.224 0-.406.182-.406.406v2.188c0 .224.183.406.406.406h91.692c.224 0 .405-.184.405-.406v-2.188a.4048.4048 0 00-.405-.406z"/></g><g fill="#b2925c" stroke="#563e2a" stroke-width="2" stroke-miterlimit="10"><path d="M11.986 41.547h83.448c1.602 0 2.162-2.123.771-2.914L54.968 15.209c-.472-.27-1.051-.271-1.526-.008L11.229 38.625c-1.407.781-.853 2.922.757 2.922zM11.341 47.421h84.625c.242 0 .438-.196.438-.438v-2.125c0-.241-.195-.438-.438-.438H11.341c-.242 0-.438.195-.438.438v2.125c0 .242.196.438.438.438zM11.366 95.919H96.053a.407.407 0 00.406-.406v-2.188c0-.225-.183-.406-.406-.406h-6.65v-.75h2.842c.506 0 .87-.487.726-.974l-1.552-5.234c-.095-.321-.392-.542-.728-.542h-1.289V54.588h1.227c.335 0 .631-.221.726-.542l1.553-5.235c.144-.484-.221-.973-.728-.973h-2.778v-.168h-70.75v.168H16c-.506 0-.87.487-.727.973l1.553 5.235a.759.759 0 00.727.542h1.101v30.831h-1.038c-.336 0-.632.221-.727.542l-1.552 5.234c-.145.485.22.974.727.974h2.59v.75h-7.287c-.225 0-.406.183-.406.406v2.188c-.001.224.181.406.405.406zM99.874 98.669H8.182c-.224 0-.406.182-.406.406v2.188c0 .224.183.406.406.406h91.692c.224 0 .405-.184.405-.406v-2.188a.4048.4048 0 00-.405-.406z"/></g><path fill="#45361f" d="M18.653 47.67h70.75v48.249h-70.75z"/><path d="M19.195 86.17c-.85 0-1.541-.691-1.541-1.542V55.212c0-.852.691-1.542 1.541-1.542h7.167c.852 0 1.542.69 1.542 1.542v29.416c0 .851-.69 1.542-1.542 1.542h-7.167z" fill="#edd4a6"/><path d="M26.362 54.67c.3 0 .542.242.542.542v29.416c0 .3-.242.542-.542.542h-7.167a.5418.5418 0 01-.542-.542V55.212c0-.3.243-.542.542-.542h7.167m0-2h-7.167c-1.4 0-2.542 1.14-2.542 2.542v29.416c0 1.4 1.141 2.542 2.542 2.542h7.167c1.401 0 2.542-1.142 2.542-2.542V55.212c-.001-1.402-1.141-2.542-2.542-2.542z" fill="#77593c"/><path d="M49.695 86.17c-.85 0-1.541-.691-1.541-1.542V55.212c0-.852.691-1.542 1.541-1.542h7.167c.852 0 1.542.69 1.542 1.542v29.416c0 .851-.69 1.542-1.542 1.542h-7.167z" fill="#edd4a6"/><path d="M56.862 54.67c.3 0 .542.242.542.542v29.416c0 .3-.242.542-.542.542h-7.167a.5418.5418 0 01-.542-.542V55.212c0-.3.243-.542.542-.542h7.167m0-2h-7.167c-1.4 0-2.542 1.14-2.542 2.542v29.416c0 1.4 1.141 2.542 2.542 2.542h7.167c1.401 0 2.542-1.142 2.542-2.542V55.212c-.001-1.402-1.141-2.542-2.542-2.542z" fill="#77593c"/><path d="M81.695 86.17c-.85 0-1.541-.691-1.541-1.542V55.212c0-.852.691-1.542 1.541-1.542h7.167c.852 0 1.542.69 1.542 1.542v29.416c0 .851-.69 1.542-1.542 1.542h-7.167z" fill="#edd4a6"/><path d="M88.862 54.67c.3 0 .542.242.542.542v29.416c0 .3-.242.542-.542.542h-7.167a.5418.5418 0 01-.542-.542V55.212c0-.3.243-.542.542-.542h7.167m0-2h-7.167c-1.4 0-2.542 1.14-2.542 2.542v29.416c0 1.4 1.141 2.542 2.542 2.542h7.167c1.401 0 2.542-1.142 2.542-2.542V55.212c-.001-1.402-1.141-2.542-2.542-2.542z" fill="#77593c"/><path d="M11.986 42.547c-1.185 0-2.18-.771-2.478-1.917-.297-1.146.199-2.304 1.235-2.879l42.213-23.424c.379-.211.809-.321 1.24-.321.442 0 .881.115 1.266.334l41.234 23.424c1.025.582 1.513 1.738 1.211 2.878-.302 1.141-1.296 1.905-2.475 1.905H11.986z" fill="#edd4a6"/><path d="M54.198 15.006c.266 0 .531.067.77.203l41.236 23.424c1.392.791.831 2.914-.771 2.914H11.985c-1.608 0-2.163-2.141-.756-2.922l42.213-23.424c.235-.131.496-.195.756-.195m0-2c-.604 0-1.199.154-1.727.446L10.259 36.877c-1.441.799-2.131 2.408-1.718 4.003.413 1.596 1.797 2.667 3.444 2.667h83.449c1.64 0 3.022-1.064 3.44-2.649.419-1.585-.257-3.193-1.684-4.004L55.956 13.47a3.5644 3.5644 0 00-1.758-.464z" fill="#77593c"/><g fill="#b2925c" stroke="#563e2a" stroke-width="2" stroke-miterlimit="10"><path d="M28.317 85.419H17.615c-.336 0-.632.221-.727.543l-1.552 5.233c-.145.485.22.974.727.974H29.87c.506 0 .87-.487.726-.974l-1.552-5.233a.7587.7587 0 00-.727-.543zM58.692 85.419H47.99c-.336 0-.632.221-.727.543l-1.552 5.233c-.145.485.22.974.727.974h13.807c.506 0 .87-.487.726-.974l-1.552-5.233a.7596.7596 0 00-.727-.543zM90.692 85.419H79.99c-.336 0-.632.221-.727.543l-1.552 5.233c-.145.485.22.974.727.974h13.807c.506 0 .87-.487.726-.974l-1.552-5.233a.7596.7596 0 00-.727-.543zM28.254 54.588H17.552a.759.759 0 01-.727-.542l-1.553-5.235c-.144-.484.221-.973.727-.973h13.806c.507 0 .871.487.728.973l-1.553 5.235a.757.757 0 01-.726.542zM58.629 54.588H47.927a.759.759 0 01-.727-.542l-1.553-5.235c-.144-.484.221-.973.727-.973H60.18c.507 0 .871.487.728.973l-1.553 5.235a.757.757 0 01-.726.542zM90.629 54.588H79.927a.759.759 0 01-.727-.542l-1.553-5.235c-.144-.484.221-.973.727-.973H92.18c.507 0 .871.487.728.973l-1.553 5.235a.757.757 0 01-.726.542z"/></g><g><path d="M11.341 48.42c-.793 0-1.438-.646-1.438-1.438v-2.125c0-.793.646-1.438 1.438-1.438h84.625c.793 0 1.438.645 1.438 1.438v2.125c0 .793-.645 1.438-1.438 1.438H11.341z" fill="#edd4a6"/><path d="M95.966 44.421c.242 0 .438.195.438.438v2.125c0 .241-.195.438-.438.438H11.341a.4379.4379 0 01-.438-.438v-2.125c0-.241.196-.438.438-.438h84.625m0-2H11.341c-1.344 0-2.438 1.093-2.438 2.438v2.125c0 1.345 1.094 2.438 2.438 2.438h84.625c1.344 0 2.438-1.094 2.438-2.438v-2.125c-.001-1.345-1.094-2.438-2.438-2.438z" fill="#77593c"/></g><g><path d="M11.366 96.919c-.775 0-1.406-.631-1.406-1.406v-2.188c0-.775.631-1.406 1.406-1.406h84.688c.775 0 1.406.631 1.406 1.406v2.188c0 .775-.631 1.406-1.406 1.406H11.366z" fill="#edd4a6"/><path d="M96.054 92.919c.224 0 .406.183.406.406v2.188c0 .225-.183.406-.406.406H11.366a.4056.4056 0 01-.406-.406v-2.188c0-.225.182-.406.406-.406h84.688m0-2H11.366c-1.327 0-2.406 1.08-2.406 2.406v2.188c0 1.327 1.079 2.406 2.406 2.406h84.688c1.327 0 2.406-1.079 2.406-2.406v-2.188c0-1.326-1.08-2.406-2.406-2.406z" fill="#77593c"/></g><g><path d="M8.182 102.669c-.774 0-1.406-.631-1.406-1.406v-2.188c0-.775.632-1.406 1.406-1.406h91.692c.774 0 1.405.631 1.405 1.406v2.188c0 .775-.631 1.406-1.405 1.406H8.182z" fill="#edd4a6"/><path d="M99.874 98.669c.224 0 .405.182.405.406v2.188a.406.406 0 01-.405.406H8.182c-.224 0-.406-.184-.406-.406v-2.188c0-.226.183-.406.406-.406h91.692m0-2H8.182c-1.327 0-2.406 1.079-2.406 2.406v2.188c0 1.326 1.08 2.406 2.406 2.406h91.692c1.327 0 2.405-1.08 2.405-2.406v-2.188c.001-1.327-1.078-2.406-2.405-2.406z" fill="#77593c"/></g><g><path d="M18.128 38.924h71.05c.694 0 .938-.92.333-1.264L54.403 17.717a.6764.6764 0 00-.661-.003L17.8 37.657c-.61.339-.369 1.267.328 1.267z" fill="#c9a27b"/></g><g opacity=".5"><path d="M18.128 38.924l35.9-19.504 35.15 19.504c.694 0 .938-.92.333-1.264L54.403 17.717a.6764.6764 0 00-.661-.003L17.8 37.657c-.61.339-.369 1.267.328 1.267z" fill="#997656"/></g><g><g opacity=".2"><path d="M40.357 28.356V12.282l13.922-8.037L68.2 12.282v16.074l-13.921 8.038z"/><path d="M54.278 5.399l12.922 7.46v14.92L54.278 35.24l-12.921-7.461v-14.92l12.921-7.46m0-2.309l-1 .577-12.921 7.46-1 .578v17.227l1 .578 12.921 7.46 1 .577 1-.577L68.2 29.51l1-.578V11.705l-1-.578-12.922-7.46-1-.577z"/></g><path fill="#edd4a6" d="M39.357 27.356V11.282l13.922-8.037L67.2 11.282v16.074l-13.921 8.038z"/><path d="M53.278 4.399l12.922 7.46v14.92L53.278 34.24l-12.921-7.461v-14.92l12.921-7.46m0-2.309l-1 .577-12.921 7.46-1 .578v17.227l1 .578 12.921 7.46 1 .577 1-.577L67.2 28.51l1-.578V10.705l-1-.578-12.922-7.46-1-.577z" fill="#77593c"/></g><g><path d="M53.778 28.542c-5.085 0-9.223-4.139-9.223-9.224s4.138-9.223 9.223-9.223c3.453 0 6.589 1.903 8.183 4.967l.173.332-3.586 1.866-.193-.173c-.591-.529-1.343-.821-2.115-.821-1.758 0-3.188 1.43-3.188 3.188 0 1.757 1.43 3.187 3.188 3.187.574 0 1.127-.157 1.64-.468l.215-.131 3.323 2.459-.224.301c-1.734 2.343-4.505 3.74-7.416 3.74z" fill="#ffeed2"/><path d="M53.777 10.472c3.295 0 6.329 1.842 7.85 4.766l-3.023 1.572c-.63-.562-1.454-.917-2.366-.917-1.967 0-3.562 1.595-3.562 3.562 0 1.967 1.595 3.562 3.562 3.562.674 0 1.297-.198 1.833-.521l2.82 2.085c-1.667 2.254-4.31 3.587-7.113 3.587-4.854 0-8.848-3.994-8.848-8.849-.001-4.854 3.994-8.847 8.847-8.847m0-.75c-5.292 0-9.598 4.306-9.598 9.598s4.306 9.599 9.598 9.599c3.03 0 5.914-1.454 7.717-3.892l.445-.603-.603-.446-2.82-2.086-.404-.299-.43.26c-.455.275-.939.415-1.445.415-1.551 0-2.812-1.262-2.812-2.812s1.262-2.812 2.812-2.812c.681 0 1.343.258 1.865.727l.386.346.461-.239 3.023-1.572.666-.346-.346-.666c-1.658-3.192-4.921-5.172-8.515-5.172z" fill="#77593c"/></g></svg>