<svg xmlns="http://www.w3.org/2000/svg" width="75" height="75"><style>.st58{fill:#223948}.st162{fill:#fff}.st275{display:none}</style><g id="Icons"><g id="User"><path class="st162" d="M37.5 64.6c-11 0-15.9-1.4-16.3-4.6-.2-1.4-.2-3.6-.1-6v-3.4c0-3.6 4.2-10.7 10.2-11.6l.6-.1.2.3c.4 0 1.6.4 5.4.6 3.9-.2 5-.5 5.4-.6l.2-.3h.6c6 1 10.1 8.1 10.1 11.7L54 54V60c-.5 3.2-5.4 4.6-16.4 4.6z"/><path class="st58" d="M43.5 40c5.4.8 9.3 7.3 9.3 10.6 0 3.2.3 7.3 0 9.2-.3 2.1-3.5 3.8-15.3 3.8s-15-1.7-15.4-3.8c-.2-2 0-6 0-9.2 0-3.3 4-9.8 9.4-10.7 0 0 .4.6 6 .9 5.5-.2 6-.9 6-.9m-11.1-2.1l-1.2.2c-6.3 1-11 8.3-11 12.6L20 54v6.1c.6 4 5.7 5.5 17.4 5.5s16.8-1.6 17.3-5.5c.2-1.4.2-3.7.1-6v-3.5c0-4.3-4.8-11.7-11-12.6l-1.2-.2-.4.5a26.4 26.4 0 01-9.6 0l-.4-.5z"/><g><path class="st162" d="M37.4 41c-.7 0-2.4 0-3-.2-3.1-.6-10.2-3.4-10.2-16 0-9.3 4.6-14.4 13.1-14.4 8.6 0 13.5 5.2 13.5 14.3 0 11.9-5.7 15.3-10.6 16.1l-2.8.1z"/><path class="st58" d="M37.3 11.4c9.4 0 12.5 6.2 12.5 13.3 0 10-4.2 14.2-9.8 15.1a23 23 0 01-5.5 0c-4.8-1-9.3-5.2-9.3-15 0-7.2 2.8-13.4 12.1-13.4m0-2c-9.1 0-14.1 5.4-14.1 15.3 0 13.4 7.6 16.4 11 17 .7.2 2 .2 3.2.2l3-.1c5.2-.9 11.4-4.5 11.4-17 0-9.8-5.3-15.4-14.5-15.4z"/></g></g></g></svg>