<svg version="1.1" id="Layer_1" xmlns="http://www.w3.org/2000/svg" x="0" y="0" width="75" height="75" xml:space="preserve"><style>.st1{fill:#808285}.st12{fill:#c1c1c1}.st23{fill:none;stroke:#58595b;stroke-width:.75;stroke-miterlimit:10}.st42{fill:#a7a9ac}.st44{fill:#414042}</style><path transform="scale(-1) rotate(-89.398 -24.6518 37.8704)" class="st1" d="M33.488 10.889h7.97v27.006h-7.97z"/><path class="st44" d="M24.508 20.77l26.005.275-.074 6.969-26.005-.275.074-6.969m-.99-1.01l-.01 1-.074 6.969-.01 1 1 .011 26.005.274 1 .011.01-1 .074-6.969.011-1-1-.01-26.006-.276-1-.01z"/><path class="st23" d="M34.065 28.314s-.548-5.105-2.829-5.128c-2.868-.116-2.922 5.067-2.922 5.067l5.751.061zM41.351 22.884c-.027 2.554.934 4.635 2.146 4.647 1.211.013 2.216-2.047 2.243-4.601.008-.765-.173-2.438-.173-2.438l-3.872-.041c-.001.001-.337 1.738-.344 2.433zM26.611 21.191c.001-.135.01-.937.01-.937l-2.496.06-.235 3.936s.642.007.71.007c1.093.012 1.993-1.361 2.011-3.066z"/><path class="st42" d="M27.068 22.782c-1.603-.017-2.581 2.473-2.581 2.473l-.189 2.431 5.429.109s.07-.577.073-.879c.023-2.267-.947-4.116-2.732-4.134zM39.992 23.803c-.617-1.646-1.794-2.765-3.16-2.779-.856-.009-1.647.42-2.279 1.141.004-.074.01-.148.011-.223.004-.374-.129-1.066-.129-1.066l-4.431-.047s-.147.689-.151 1.063c-.019 1.729 1.021 3.141 2.322 3.154.413.004.802-.134 1.143-.378a7.886 7.886 0 00-.222 1.773c-.005.48.106 1.392.106 1.392l.869.009 6.247.066s.13-.909.135-1.389c.005-.495-.038-.973-.116-1.43.359.874.917 1.438 1.549 1.445 1.109.012 2.027-1.69 2.049-3.801.006-.634-.206-1.76-.206-1.76l-3.568-.038s-.236 1.122-.243 1.755c-.005.387.021.76.074 1.113z"/><ellipse transform="scale(-1) rotate(-89.398 -22.024 28.9091)" class="st42" cx="28.606" cy="21.792" rx="1.366" ry=".861"/><path class="st42" d="M31.753 27.29c.01-.933-.42-1.693-.961-1.699-.541-.006-.987.746-.997 1.678-.01.933.427 1.089.967 1.095.541.005.981-.142.991-1.074zM45.194 21.505c-.689-.007-1.256.801-1.267 1.804-.011 1.004.54 1.824 1.229 1.831s1.256-.801 1.267-1.804c.003-.306-.046-.595-.135-.849.498.547 1.141 1.037 1.85 1.044.235.002.462-.021.681-.062-.666.5-1.162 1.378-1.333 2.428-.348-.201-.737-.318-1.151-.323-1.254-.013-2.644 2.368-2.644 2.368l6.748.073.072-4.943s-.268-.046-.407-.047c-.057 0-.112.006-.168.01.22-.139.583-.651.583-.651l-.006-1.339-5.265-.056s.137.27.376.634c-.134-.074-.278-.116-.43-.118z"/><g><path class="st12" d="M41.877 20.954s-.258 1.008-.265 1.632c-.015 1.39.436 2.521 1.006 2.527s1.044-1.116 1.059-2.506c.006-.624-.23-1.637-.23-1.637l-1.57-.016zM39.886 26.854c.026-2.468-.876-4.479-2.016-4.491-1.14-.012-2.084 1.979-2.11 4.447-.004.361.046 1.05.046 1.05l4.013.042c-.001 0 .063-.687.067-1.048zM34.138 21.474c.002-.209-.036-.604-.036-.604l-2.067-.022s-.046.394-.049.603c-.012 1.2.459 2.177 1.053 2.184.594.007 1.086-.961 1.099-2.161zM29 27.164c.021-1.972-.511-3.576-1.188-3.583-1.226-.013-1.684 1.56-1.705 3.532-.002.202-.007.645-.007.645l2.219.01.656.013c.001-.001.024-.407.025-.617zM47.433 21.392c-.01.886.505 1.61 1.148 1.617s1.173-.706 1.183-1.593c.001-.129-.028-.375-.028-.375l-2.267-.03c.001 0-.035.249-.036.381zM48.549 26.101c-.008.735.352 1.897.352 1.897l1.539.016.064-4.334s-.379-.293-.594-.296c-.736-.009-1.345 1.208-1.361 2.717zM47.097 26.752c-.864-.009-.876 1.179-.876 1.179l1.732.058c-.001 0-.114-1.229-.856-1.237z"/></g><g><ellipse transform="rotate(.596 45.226 23.1206)" class="st12" cx="45.424" cy="23.229" rx=".613" ry="1.246"/><ellipse transform="rotate(.596 28.7474 21.6967)" class="st12" cx="28.634" cy="21.612" rx=".608" ry="1.186"/><ellipse transform="rotate(.607 31.03 27.0148)" class="st12" cx="31.131" cy="27.1" rx=".624" ry="1.129"/></g><g><path class="st44" d="M24.508 20.77l26.005.275-.074 6.969-26.005-.275.074-6.969m-.99-1.01l-.01 1-.074 6.969-.01 1 1 .011 26.005.274 1 .011.01-1 .074-6.969.011-1-1-.01-26.006-.276-1-.01z"/></g><g><path transform="scale(-1) rotate(-36.518 -112.4818 189.1129)" class="st1" d="M58.411 23.609h7.969v27.006h-7.969z"/><path class="st44" d="M57.458 24.588L72.934 45.49l-5.602 4.147-15.475-20.901 5.601-4.148m.209-1.398l-.804.595-5.601 4.147-.804.595.595.804 15.476 20.901.595.804.804-.595 5.602-4.147.803-.595-.595-.804-15.476-20.901-.595-.804z"/><path class="st23" d="M67.58 37.463s-3.74 3.519-2.382 5.35c1.638 2.357 5.804-.728 5.804-.728l-3.422-4.622zM58.853 34.931c2.053-1.52 3.132-3.542 2.412-4.516-.721-.974-2.97-.531-5.022.989-.615.456-1.839 1.61-1.839 1.61l2.304 3.112c-.002 0 1.586-.781 2.145-1.195zM66.398 47.706c-.108.081-.752.557-.752.557l1.554 1.954 3.279-2.188-.422-.57c-.651-.878-2.289-.768-3.659.247z"/><path class="st42" d="M67.391 46.381c.954 1.288 3.53.565 3.53.565l2.053-1.316-3.189-4.395s-.502.292-.745.472c-1.823 1.351-2.711 3.24-1.649 4.674zM60.405 35.46c-.939 1.485-1.122 3.1-.309 4.197.509.688 1.329 1.059 2.286 1.129-.062.041-.124.081-.185.126-.3.222-.772.746-.772.746l2.637 3.561s.639-.299.939-.521c1.389-1.028 1.888-2.709 1.113-3.755-.246-.332-.591-.559-.991-.683a7.851 7.851 0 001.547-.893c.386-.286 1.046-.924 1.046-.924l-.517-.698-3.717-5.021s-.803.445-1.189.731c-.398.294-.752.617-1.069.956.48-.814.593-1.599.217-2.107-.66-.892-2.571-.596-4.267.66-.509.377-1.279 1.226-1.279 1.226l2.123 2.869s1.037-.488 1.546-.866c.311-.232.592-.478.841-.733z"/><ellipse transform="rotate(-36.515 65.677 45.7566)" class="st42" cx="65.674" cy="45.753" rx="1.365" ry=".861"/><path class="st42" d="M68.158 39.925c-.75.555-1.096 1.357-.774 1.792.322.434 1.19.336 1.939-.218.75-.555.611-.998.289-1.432-.322-.435-.705-.697-1.454-.142zM55.433 32.699c.41.554 1.396.519 2.204-.079.807-.597 1.128-1.53.718-2.084-.41-.554-1.396-.518-2.203.079-.246.182-.446.396-.595.62.136-.727.138-1.535-.284-2.104-.14-.188-.296-.356-.461-.506.8.229 1.8.095 2.74-.402.05.399.191.78.437 1.113.747 1.008 3.484.679 3.484.679l-4.014-5.425-3.985 2.926s.125.241.208.353c.034.046.073.086.11.128-.244-.091-.871-.072-.871-.072l-1.064.813 3.133 4.231s.133-.271.278-.682c.022.149.075.29.165.412z"/><g><path class="st12" d="M56.997 35.676s.959-.402 1.46-.773c1.117-.827 1.748-1.869 1.408-2.328-.339-.458-1.52-.159-2.637.668-.501.371-1.167 1.172-1.167 1.172l.936 1.261zM62.902 33.704c-1.984 1.469-3.042 3.402-2.364 4.318s2.836.468 4.82-1.001c.291-.215.809-.67.809-.67l-2.388-3.225c0-.001-.587.362-.877.578zM62.082 41.534c-.168.125-.46.393-.46.393l1.23 1.661s.341-.201.51-.325c.964-.714 1.459-1.68 1.106-2.157s-1.422-.287-2.386.428zM69.718 42.196c-1.584 1.173-2.543 2.566-2.14 3.11.729.985 2.259.401 3.844-.772.163-.12.519-.384.519-.384l-1.331-1.775-.385-.531c0-.001-.337.227-.507.352zM53.992 30.982c.713-.527.98-1.375.597-1.892-.383-.517-1.271-.509-1.984.019-.104.077-.282.249-.282.249l1.344 1.825c0-.001.22-.122.325-.201zM57.074 27.25c.59-.438 1.3-1.425 1.3-1.425l-.916-1.237-3.495 2.565s-.005.48.123.652c.437.592 1.775.343 2.988-.555zM58.47 28.015c.514.694 1.469-.013 1.469-.013l-1-1.416c0 .001-.911.832-.469 1.429z"/></g><g><ellipse transform="rotate(-126.513 56.6705 31.476)" class="st12" cx="56.67" cy="31.476" rx=".613" ry="1.247"/><ellipse transform="rotate(-126.527 65.5118 45.838)" class="st12" cx="65.513" cy="45.838" rx=".608" ry="1.186"/><ellipse transform="rotate(-126.534 68.3817 40.5357)" class="st12" cx="68.382" cy="40.535" rx=".624" ry="1.129"/></g><g><path class="st44" d="M57.458 24.588L72.934 45.49l-5.602 4.147-15.475-20.901 5.601-4.148m.209-1.398l-.804.595-5.601 4.147-.804.595.595.804 15.476 20.901.595.804.804-.595 5.602-4.147.803-.595-.595-.804-15.476-20.901-.595-.804z"/></g></g><g><path transform="rotate(126.513 12.349 37.1138)" class="st1" d="M-1.154 33.128h27.007v7.969H-1.154z"/><path class="st44" d="M17.287 24.588l5.601 4.147L7.413 49.637 1.811 45.49l15.476-20.902m-.209-1.398l-.595.804L1.007 44.895l-.595.804.804.595 5.601 4.147.804.595.595-.804 15.475-20.901.595-.804-.804-.595-5.601-4.147-.803-.595z"/><path class="st23" d="M7.165 37.463s3.74 3.519 2.382 5.35c-1.638 2.357-5.804-.728-5.804-.728l3.422-4.622zM15.892 34.931c-2.053-1.52-3.132-3.542-2.411-4.516.721-.974 2.97-.531 5.022.989.615.456 1.839 1.61 1.839 1.61l-2.304 3.112c.001 0-1.588-.781-2.146-1.195zM8.347 47.706l.753.557-1.555 1.954-3.279-2.188s.381-.516.422-.57c.65-.878 2.288-.768 3.659.247z"/><path class="st42" d="M7.354 46.381c-.954 1.288-3.53.565-3.53.565L1.771 45.63l3.189-4.395s.502.292.745.472c1.822 1.351 2.711 3.24 1.649 4.674zM14.339 35.46c.94 1.485 1.122 3.1.309 4.197-.509.688-1.329 1.059-2.286 1.129.062.041.124.081.185.126.301.222.773.746.773.746l-2.637 3.561s-.639-.299-.939-.521c-1.39-1.028-1.888-2.709-1.114-3.755.246-.332.591-.559.992-.683a7.851 7.851 0 01-1.547-.893c-.386-.286-1.046-.924-1.046-.924l.517-.698 3.717-5.021s.803.445 1.189.731c.397.294.752.617 1.069.956-.48-.814-.593-1.599-.217-2.107.66-.892 2.571-.596 4.267.66.509.377 1.279 1.226 1.279 1.226l-2.123 2.869s-1.037-.488-1.546-.866c-.311-.232-.593-.478-.842-.733z"/><ellipse transform="rotate(-143.485 9.0701 45.7533)" class="st42" cx="9.071" cy="45.753" rx="1.365" ry=".861"/><path class="st42" d="M6.587 39.925c.75.555 1.096 1.357.774 1.792-.321.434-1.19.336-1.939-.218-.75-.555-.611-.998-.289-1.432.322-.435.704-.697 1.454-.142zM19.312 32.699c-.41.554-1.396.519-2.204-.079-.807-.597-1.128-1.53-.718-2.084.41-.554 1.396-.518 2.203.079.246.182.446.396.595.62-.136-.727-.138-1.535.284-2.104.14-.188.295-.356.46-.506-.8.229-1.8.095-2.74-.402-.05.399-.191.78-.437 1.113-.747 1.008-3.484.679-3.484.679l4.014-5.425 3.985 2.926s-.125.241-.208.353c-.034.046-.072.086-.109.128.244-.091.871-.072.871-.072l1.064.813-3.133 4.231s-.133-.271-.279-.682c-.022.149-.075.29-.164.412z"/><g><path class="st12" d="M17.748 35.676s-.959-.402-1.46-.773c-1.117-.827-1.748-1.869-1.408-2.328.339-.458 1.52-.159 2.637.668.501.371 1.167 1.172 1.167 1.172l-.936 1.261zM11.843 33.704c1.984 1.469 3.042 3.402 2.364 4.318s-2.836.468-4.82-1.001c-.291-.215-.809-.67-.809-.67l2.388-3.225c0-.001.587.362.877.578zM12.663 41.534c.168.125.46.393.46.393l-1.23 1.661s-.341-.201-.51-.325c-.964-.714-1.459-1.68-1.106-2.157s1.421-.287 2.386.428zM5.026 42.196c1.585 1.173 2.543 2.566 2.141 3.11-.73.985-2.26.401-3.845-.772-.163-.12-.519-.384-.519-.384l1.332-1.775.385-.531c0-.001.337.227.506.352zM20.753 30.982c-.713-.527-.979-1.375-.597-1.892.383-.517 1.271-.509 1.984.019.104.077.282.249.282.249l-1.344 1.825c0-.001-.22-.122-.325-.201zM17.671 27.25c-.59-.438-1.3-1.425-1.3-1.425l.916-1.237 3.495 2.565s.005.48-.123.652c-.437.592-1.775.343-2.988-.555zM16.275 28.015c-.515.694-1.469-.013-1.469-.013l1-1.416c0 .001.911.832.469 1.429z"/></g><g><ellipse transform="rotate(-53.487 18.074 31.4761)" class="st12" cx="18.075" cy="31.476" rx=".613" ry="1.247"/><ellipse transform="rotate(-53.495 9.2308 45.8376)" class="st12" cx="9.231" cy="45.838" rx=".608" ry="1.186"/><ellipse transform="rotate(-53.466 6.3627 40.5359)" class="st12" cx="6.363" cy="40.535" rx=".624" ry="1.129"/></g><g><path class="st44" d="M17.287 24.588l5.601 4.147L7.413 49.637 1.811 45.49l15.476-20.902m-.209-1.398l-.595.804L1.007 44.895l-.595.804.804.595 5.601 4.147.804.595.595-.804 15.475-20.901.595-.804-.804-.595-5.601-4.147-.803-.595z"/></g></g></svg>