<svg xmlns="http://www.w3.org/2000/svg" width="128" height="128"><g><path d="M65.72 19.07c.26 0 32.98 27.04 32.98 27.04.24.2.41.47.47.78l7.8 47.1c.18.91-.1 1.61-.63 1.61-.2 0-.43-.1-.69-.3l-5.35-4.28-1.78 3.07-9.2 15.8H38.68l-9.2-14.95-2.24-3.55-4.89 3.9c-.26.22-.5.31-.69.31-.54 0-.8-.7-.63-1.6l7.8-47.1c.06-.32.23-.6.47-.8 0 0 32.73-27.03 32.97-27.03h3.45m-3.45-5c-1.8 0-2.63.66-4.62 2.27a4373.98 4373.98 0 00-15.14 12.4c-8.21 6.75-16.4 13.51-16.4 13.51a6.36 6.36 0 00-2.21 3.83l-7.8 47.05a6.62 6.62 0 001.27 5.45 5.56 5.56 0 004.29 2.02c.95 0 2.4-.24 3.85-1.43l.47-.37 8.45 13.7a5 5 0 004.25 2.38h50.64a5 5 0 004.32-2.48l8.07-13.85.82.65a6 6 0 003.81 1.4c1.66 0 3.23-.74 4.3-2.03a6.62 6.62 0 001.26-5.44l-7.8-47.06-.02-.11a6.36 6.36 0 00-2.18-3.7L85.49 28.73l-11.34-9.31c-6.53-5.33-6.53-5.33-8.36-5.35H62.28z"/><linearGradient id="d" gradientUnits="userSpaceOnUse" x1="64.15" y1="66.09" x2="64.15" y2="111.44"><stop offset=".11" stop-color="#0af"/><stop offset=".37" stop-color="#01a7ff"/><stop offset=".52" stop-color="#059fff"/><stop offset=".65" stop-color="#0b91ff"/><stop offset=".76" stop-color="#137dff"/><stop offset=".87" stop-color="#1f62ff"/><stop offset=".96" stop-color="#2c42ff"/><stop offset="1" stop-color="#33f"/></linearGradient><path fill="url(#d)" d="M38 111.44l-10.35-16.8L64.14 66.1l36.5 27.66-10.3 17.69z"/><path fill="#0000B2" d="M64.15 67.98l34.53 26.17-9.2 15.78H38.83L29.64 95l34.51-27.02m-.03-3.78l-1.81 1.42-34.53 27.01-2.1 1.66 1.4 2.28 9.2 14.94.88 1.43H91.2l.86-1.5 9.21-15.78 1.34-2.3-2.12-1.6-34.52-26.17-1.84-1.4z"/><linearGradient id="e" gradientUnits="userSpaceOnUse" x1="61.27" y1="68.17" x2="26.5" y2="48.1"><stop offset=".11" stop-color="#0af"/><stop offset=".28" stop-color="#04a6ff"/><stop offset=".47" stop-color="#0e99ff"/><stop offset=".67" stop-color="#2083ff"/><stop offset=".87" stop-color="#3965ff"/><stop offset="1" stop-color="#4d4dff"/></linearGradient><path fill="url(#e)" d="M21.81 97.16c-.62 0-1.19-.27-1.6-.76-.52-.64-.7-1.57-.5-2.63l7.8-47.07c.13-.69.48-1.28 1-1.7 33.13-27.38 33.16-27.38 33.92-27.38h1.5V62.8c0 .86-.38 1.66-1.05 2.2L23.44 96.53c-.51.42-1.06.64-1.63.64z"/><path fill="#0000B2" d="M62.43 19.12V62.8c0 .4-.18.79-.5 1.04L22.52 95.35c-.26.21-.5.3-.7.3-.53 0-.8-.7-.63-1.6l7.8-47.1c.07-.31.23-.59.47-.79 0 0 32.73-27.03 32.98-27.04m0-3h-.04c-1.13.02-1.13.02-7.12 4.9l-11.33 9.3-16.4 13.53a4.34 4.34 0 00-1.5 2.53v.04l-.01.03-7.8 47.08a4.58 4.58 0 00.83 3.83c.69.82 1.69 1.3 2.75 1.3.63 0 1.6-.17 2.59-.98l39.4-31.5a4.34 4.34 0 001.63-3.4V16.13h-3z"/><g><linearGradient id="f" gradientUnits="userSpaceOnUse" x1="101.81" y1="48.1" x2="67.05" y2="68.17"><stop offset="0" stop-color="#4d4dff"/><stop offset=".13" stop-color="#3965ff"/><stop offset=".33" stop-color="#2083ff"/><stop offset=".53" stop-color="#0e99ff"/><stop offset=".72" stop-color="#04a6ff"/><stop offset=".89" stop-color="#0af"/></linearGradient><path fill="url(#f)" d="M106.5 97.16c-.57 0-1.12-.22-1.64-.65l-39.42-31.5a2.84 2.84 0 01-1.06-2.22V17.63h1.52c.74 0 1.14.3 33.91 27.37.51.42.86 1.01.99 1.66l7.8 47.15a3.1 3.1 0 01-.51 2.6c-.4.48-.97.75-1.6.75z"/><path fill="#0000B2" d="M65.88 19.12c.25 0 32.98 27.04 32.98 27.04.24.2.4.48.47.79l7.8 47.1c.17.9-.1 1.6-.63 1.6-.2 0-.43-.09-.7-.3L66.39 63.83c-.32-.25-.5-.64-.5-1.04V19.12m0-3h-3V62.8c0 1.31.58 2.54 1.6 3.37l39.45 31.54c.98.79 1.94.96 2.57.96 1.06 0 2.06-.48 2.75-1.3a4.6 4.6 0 00.83-3.83l-7.8-47.08v-.07c-.2-1-.73-1.9-1.52-2.54L84.38 30.32c-4.1-3.38-8.23-6.76-11.33-9.3-6-4.9-6-4.9-7.16-4.9z"/></g><path d="M69.85 113.18H58.46l-.97-11.8A6.04 6.04 0 0160.8 96a7.2 7.2 0 016.4-.07l.22.1c2.08 1.01 3.4 3.12 3.4 5.44l-.96 11.71z"/></g></svg>