<svg xmlns="http://www.w3.org/2000/svg" width="128" height="128"><g><path d="M65.72 19.52c.26 0 32.98 27.04 32.98 27.04.24.2.41.48.47.78l7.8 47.11c.18.9-.1 1.6-.63 1.6-.2 0-.43-.09-.69-.3l-5.35-4.27-1.78 3.06-9.2 15.8H38.68l-9.2-14.95-2.24-3.55-4.89 3.9c-.26.22-.5.32-.69.32-.54 0-.8-.7-.63-1.6l7.8-47.12c.06-.3.23-.58.47-.78 0 0 32.73-27.04 32.97-27.04h3.45m-3.45-5c-1.8 0-2.63.67-4.62 2.27a4373.98 4373.98 0 00-15.14 12.4c-8.21 6.75-16.4 13.51-16.4 13.51a6.36 6.36 0 00-2.21 3.83l-7.8 47.06a6.62 6.62 0 001.27 5.44 5.56 5.56 0 004.29 2.03c.95 0 2.4-.25 3.85-1.43l.47-.38 8.45 13.7a5 5 0 004.26 2.38h50.63a5 5 0 004.32-2.48L101.7 99l.82.65a6 6 0 003.81 1.4c1.66 0 3.23-.73 4.3-2.02a6.62 6.62 0 001.26-5.44l-7.8-47.06-.02-.12a6.36 6.36 0 00-2.18-3.7L85.49 29.18l-11.34-9.3c-6.53-5.34-6.53-5.34-8.36-5.36H62.28z"/><linearGradient id="d" gradientUnits="userSpaceOnUse" x1="64.15" y1="66.54" x2="64.15" y2="111.89"><stop offset=".11" stop-color="#00ff1a"/><stop offset=".39" stop-color="#02fc1c"/><stop offset=".56" stop-color="#09f422"/><stop offset=".7" stop-color="#15e62d"/><stop offset=".82" stop-color="#26d23c"/><stop offset=".93" stop-color="#3cb850"/><stop offset="1" stop-color="#4da45f"/></linearGradient><path fill="url(#d)" d="M38 111.89l-10.35-16.8 36.49-28.55 36.5 27.67-10.3 17.68z"/><path fill="#086800" d="M64.15 68.44L98.68 94.6l-9.2 15.79H38.83l-9.2-14.94 34.51-27.01m-.03-3.79l-1.81 1.42L27.78 93.1l-2.1 1.65 1.4 2.28 9.2 14.94.88 1.43H91.2l.86-1.5 9.21-15.78 1.34-2.3-2.12-1.6-34.52-26.16-1.84-1.4z"/><linearGradient id="e" gradientUnits="userSpaceOnUse" x1="61.27" y1="68.62" x2="26.5" y2="48.55"><stop offset=".11" stop-color="#00ff1a"/><stop offset=".29" stop-color="#04fb1d"/><stop offset=".48" stop-color="#0fee27"/><stop offset=".68" stop-color="#21d837"/><stop offset=".88" stop-color="#3aba4e"/><stop offset="1" stop-color="#4da45f"/></linearGradient><path fill="url(#e)" d="M21.81 97.61c-.62 0-1.19-.27-1.6-.76-.52-.64-.7-1.57-.5-2.63l7.8-47.07c.13-.69.48-1.28 1-1.7 33.13-27.37 33.16-27.37 33.92-27.37h1.5v45.16c0 .86-.38 1.67-1.05 2.21L23.44 96.98c-.51.42-1.06.63-1.63.63z"/><path fill="#086800" d="M62.43 19.58v43.66c0 .4-.18.8-.5 1.05L22.52 95.8c-.26.2-.5.3-.7.3-.53 0-.8-.7-.63-1.6l7.8-47.11c.07-.3.23-.59.47-.78 0 0 32.73-27.04 32.98-27.04m0-3h-.04c-1.13.01-1.13.01-7.12 4.9l-11.33 9.3-16.4 13.52a4.34 4.34 0 00-1.5 2.54v.03l-.01.04-7.8 47.07a4.58 4.58 0 00.83 3.83c.69.83 1.69 1.3 2.75 1.3.63 0 1.6-.17 2.59-.98l39.4-31.5a4.34 4.34 0 001.63-3.39V16.58h-3z"/><g><linearGradient id="f" gradientUnits="userSpaceOnUse" x1="101.81" y1="48.56" x2="67.05" y2="68.63"><stop offset="0" stop-color="#4da45f"/><stop offset=".12" stop-color="#3aba4e"/><stop offset=".32" stop-color="#21d837"/><stop offset=".52" stop-color="#0fee27"/><stop offset=".71" stop-color="#04fb1d"/><stop offset=".89" stop-color="#00ff1a"/></linearGradient><path fill="url(#f)" d="M106.5 97.61c-.57 0-1.12-.22-1.64-.64L65.44 65.46a2.84 2.84 0 01-1.06-2.22V18.08h1.52c.74 0 1.14.3 33.91 27.38.51.41.86 1 .99 1.66l7.8 47.14a3.1 3.1 0 01-.51 2.6c-.4.48-.97.75-1.6.75z"/><path fill="#086800" d="M65.88 19.58c.25 0 32.98 27.03 32.98 27.03.24.2.4.48.47.79l7.8 47.1c.17.91-.1 1.61-.63 1.61-.2 0-.43-.1-.7-.3L66.39 64.28c-.32-.26-.5-.64-.5-1.05V19.58m0-3h-3v46.66c0 1.31.58 2.54 1.6 3.37l39.45 31.54c.98.8 1.94.96 2.57.96 1.06 0 2.06-.47 2.75-1.3a4.6 4.6 0 00.83-3.83l-7.8-47.07v-.08c-.2-.99-.73-1.9-1.52-2.54L84.38 30.78c-4.1-3.39-8.23-6.77-11.33-9.3-6-4.9-6-4.9-7.16-4.9z"/></g><path d="M69.85 113.64H58.46l-.97-11.8a6.04 6.04 0 013.3-5.38 7.2 7.2 0 016.4-.08l.22.11c2.08 1 3.4 3.12 3.4 5.44l-.96 11.7z"/></g></svg>