<svg xmlns="http://www.w3.org/2000/svg" width="128" height="128"><g><path d="M65.72 20.6c.26 0 32.98 27.04 32.98 27.04.24.2.41.48.47.79l7.8 47.1c.18.9-.1 1.6-.63 1.6-.2 0-.43-.09-.69-.3l-5.35-4.27-1.78 3.06-9.2 15.8H38.68l-9.2-14.95-2.24-3.55-4.89 3.9c-.26.22-.5.32-.7.32-.53 0-.8-.7-.62-1.6l7.8-47.12c.06-.3.23-.58.47-.78 0 0 32.73-27.04 32.97-27.04h3.45m-3.45-5c-1.8 0-2.63.67-4.62 2.27a4373.98 4373.98 0 00-15.14 12.4C34.3 37 26.12 43.77 26.12 43.77a6.36 6.36 0 00-2.21 3.83l-7.8 47.06a6.63 6.63 0 001.27 5.44 5.55 5.55 0 004.29 2.03c.95 0 2.4-.25 3.85-1.43l.47-.38 8.45 13.7a5 5 0 004.25 2.39h50.64a5 5 0 004.32-2.49l8.07-13.85.8.64a6.03 6.03 0 003.83 1.42c1.67 0 3.23-.74 4.3-2.03a6.63 6.63 0 001.26-5.44l-7.8-47.06-.02-.12a6.36 6.36 0 00-2.18-3.7 12387.82 12387.82 0 00-27.75-22.84c-6.53-5.32-6.53-5.32-8.36-5.35h-3.51z"/><linearGradient id="d" gradientUnits="userSpaceOnUse" x1="64.15" y1="67.62" x2="64.15" y2="112.97"><stop offset=".11" stop-color="#ff963b"/><stop offset=".44" stop-color="#fe9438"/><stop offset=".63" stop-color="#fd8f30"/><stop offset=".79" stop-color="#f98622"/><stop offset=".94" stop-color="#f5790e"/><stop offset="1" stop-color="#f27202"/></linearGradient><path fill="url(#d)" d="M38 112.97l-10.35-16.8 36.49-28.55 36.5 27.67-10.3 17.68z"/><path fill="#753802" d="M64.15 69.52l34.53 26.16-9.2 15.79H38.83l-9.2-14.94 34.51-27.01m-.03-3.8l-1.81 1.43-34.53 27.02-2.1 1.65 1.4 2.28 9.2 14.94.88 1.43H91.2l.86-1.49 9.21-15.79 1.34-2.3-2.12-1.6-34.52-26.17-1.84-1.4z"/><linearGradient id="e" gradientUnits="userSpaceOnUse" x1="61.27" y1="69.7" x2="26.5" y2="49.63"><stop offset=".11" stop-color="#ff963b"/><stop offset=".34" stop-color="#fe9337"/><stop offset=".58" stop-color="#fb8b2a"/><stop offset=".83" stop-color="#f67e14"/><stop offset="1" stop-color="#f27202"/></linearGradient><path fill="url(#e)" d="M21.81 98.7c-.62 0-1.19-.28-1.6-.77-.52-.64-.7-1.57-.5-2.63l7.8-47.07c.13-.69.48-1.28 1-1.7 33.13-27.37 33.16-27.37 33.92-27.37h1.5v45.16c0 .86-.38 1.67-1.05 2.2L23.44 98.07c-.51.42-1.06.63-1.63.63z"/><path fill="#753802" d="M62.43 20.66v43.66c0 .4-.18.8-.5 1.05L22.52 96.88c-.26.22-.5.31-.7.31-.53 0-.8-.7-.63-1.6l7.8-47.11c.07-.3.23-.59.47-.79 0 0 32.73-27.03 32.98-27.03m0-3h-.04c-1.13.01-1.13.01-7.12 4.9l-11.33 9.3-16.4 13.52a4.34 4.34 0 00-1.5 2.54v.03l-.01.04-7.8 47.07a4.58 4.58 0 00.83 3.83c.69.83 1.69 1.3 2.75 1.3.63 0 1.6-.17 2.6-.98l39.4-31.5a4.34 4.34 0 001.62-3.39V17.66h-3z"/><g><linearGradient id="f" gradientUnits="userSpaceOnUse" x1="101.81" y1="49.64" x2="67.05" y2="69.71"><stop offset="0" stop-color="#f27202"/><stop offset=".17" stop-color="#f67e14"/><stop offset=".42" stop-color="#fb8b2a"/><stop offset=".66" stop-color="#fe9337"/><stop offset=".89" stop-color="#ff963b"/></linearGradient><path fill="url(#f)" d="M106.5 98.7c-.57 0-1.12-.23-1.64-.65L65.44 66.54a2.84 2.84 0 01-1.06-2.22V19.17l1.52-.01c.74 0 1.14.3 33.91 27.38.51.41.86 1 .99 1.66l7.8 47.14c.2 1.02.02 1.96-.51 2.6-.4.48-.97.75-1.6.75z"/><path fill="#753802" d="M65.88 20.66c.25 0 32.98 27.03 32.98 27.03.24.2.4.48.47.79l7.8 47.1c.17.91-.1 1.61-.63 1.61-.2 0-.43-.1-.7-.3L66.39 65.36c-.32-.26-.5-.64-.5-1.05V20.66m0-3h-3v46.66c0 1.31.58 2.54 1.6 3.37l39.45 31.54c.98.8 1.94.96 2.57.96 1.06 0 2.06-.47 2.75-1.3a4.6 4.6 0 00.83-3.82l-7.8-47.08v-.07c-.2-1-.73-1.9-1.52-2.54L84.37 31.86c-4.1-3.38-8.23-6.77-11.33-9.3-6-4.9-6-4.9-7.16-4.9z"/></g><path d="M69.85 114.72H58.46l-.97-11.81a6.04 6.04 0 013.3-5.38 7.2 7.2 0 016.4-.07l.22.11c2.08 1 3.4 3.12 3.4 5.44l-.96 11.7z"/></g></svg>