<svg xmlns="http://www.w3.org/2000/svg" width="128" height="128"><g><path d="M65.65 19.35c.25 0 32.98 27.04 32.98 27.04.24.2.4.48.46.79l7.8 47.1c.18.9-.09 1.6-.63 1.6-.2 0-.43-.09-.69-.3l-5.34-4.27-1.78 3.07-9.21 15.79H38.6l-9.2-14.94-2.24-3.55-4.89 3.9c-.26.21-.5.3-.69.3-.54 0-.8-.7-.63-1.6l7.8-47.1c.06-.31.23-.6.47-.8 0 0 32.73-27.03 32.98-27.03h3.45m-3.46-5c-1.8 0-2.63.67-4.62 2.27a4373.98 4373.98 0 00-15.14 12.4c-8.21 6.75-16.4 13.51-16.4 13.51a6.36 6.36 0 00-2.21 3.83l-7.8 47.06a6.62 6.62 0 001.27 5.44 5.55 5.55 0 004.3 2.03c.95 0 2.39-.25 3.84-1.43l.47-.38 8.45 13.7a5 5 0 004.26 2.39h50.63a5 5 0 004.32-2.49l8.07-13.85.82.66a6 6 0 003.81 1.4c1.67 0 3.23-.74 4.3-2.03a6.62 6.62 0 001.26-5.44l-7.8-47.06c0-.04 0-.08-.02-.12a6.36 6.36 0 00-2.18-3.7L85.4 29.01c-4.11-3.38-8.23-6.77-11.34-9.3-6.53-5.33-6.53-5.33-8.36-5.36H62.2z"/><linearGradient id="d" gradientUnits="userSpaceOnUse" x1="64.07" y1="66.09" x2="64.07" y2="111.44"><stop offset=".11" stop-color="#ff0"/><stop offset=".26" stop-color="#fffb00"/><stop offset=".42" stop-color="#fe0"/><stop offset=".59" stop-color="#ffd800"/><stop offset=".75" stop-color="#ffba00"/><stop offset=".92" stop-color="#ff9400"/><stop offset="1" stop-color="#ff8000"/></linearGradient><path fill="url(#d)" d="M37.92 111.44l-10.35-16.8 36.5-28.55 36.5 27.67-10.31 17.68z"/><path fill="#B25900" d="M64.08 67.98L98.6 94.15l-9.2 15.78H38.75L29.56 95l34.52-27.02m-.03-3.78l-1.82 1.42L27.7 92.63l-2.12 1.66L27 96.57l9.2 14.94.89 1.42h54.03l.87-1.48 9.2-15.8 1.34-2.29-2.12-1.6L65.9 65.59l-1.84-1.4z"/><linearGradient id="e" gradientUnits="userSpaceOnUse" x1="61.19" y1="68.17" x2="26.43" y2="48.1"><stop offset=".11" stop-color="#ff0"/><stop offset=".26" stop-color="#fffb00"/><stop offset=".42" stop-color="#fe0"/><stop offset=".59" stop-color="#ffd800"/><stop offset=".75" stop-color="#ffba00"/><stop offset=".92" stop-color="#ff9400"/><stop offset="1" stop-color="#ff8000"/></linearGradient><path fill="url(#e)" d="M21.74 97.16c-.63 0-1.2-.27-1.6-.76-.53-.64-.7-1.57-.5-2.63l7.79-47.07c.13-.69.48-1.28 1-1.7 33.13-27.38 33.16-27.38 33.92-27.38h1.5V62.8c0 .86-.38 1.67-1.05 2.2L23.37 96.53c-.52.42-1.07.64-1.63.64z"/><path fill="#B25900" d="M62.35 19.12V62.8c0 .4-.18.79-.5 1.04L22.44 95.35c-.26.21-.5.3-.7.3-.53 0-.8-.7-.62-1.6l7.8-47.1c.06-.31.22-.59.46-.79 0 0 32.73-27.04 32.98-27.04m0-3h-.01c-1.15 0-1.15 0-7.14 4.9l-11.34 9.3-16.4 13.53a4.35 4.35 0 00-1.5 2.53v.04l-.01.04-7.8 47.07a4.58 4.58 0 00.84 3.83c.68.83 1.68 1.3 2.75 1.3.63 0 1.59-.17 2.59-.98l39.4-31.5a4.33 4.33 0 001.62-3.39V16.12h-3z"/><g><linearGradient id="f" gradientUnits="userSpaceOnUse" x1="101.73" y1="48.1" x2="66.97" y2="68.17"><stop offset=".07" stop-color="#ff8000"/><stop offset=".1" stop-color="#ff8700"/><stop offset=".26" stop-color="#ffad00"/><stop offset=".43" stop-color="#ffcb00"/><stop offset=".59" stop-color="#ffe100"/><stop offset=".74" stop-color="#fe0"/><stop offset=".89" stop-color="#fff200"/></linearGradient><path fill="url(#f)" d="M106.42 97.16c-.56 0-1.12-.22-1.64-.65l-39.42-31.5a2.83 2.83 0 01-1.06-2.22V17.63h1.52c.74 0 1.14.3 33.92 27.37.51.43.86 1.02.98 1.67l7.8 47.14a3.1 3.1 0 01-.5 2.6c-.41.48-.98.75-1.6.75z"/><path fill="#B25900" d="M65.8 19.12c.25 0 32.98 27.04 32.98 27.04.24.2.4.48.47.79l7.8 47.1c.17.9-.1 1.6-.63 1.6-.2 0-.43-.09-.7-.3L66.3 63.83c-.32-.25-.5-.64-.5-1.04V19.12m0-3h-3V62.8c0 1.32.59 2.55 1.61 3.38l39.44 31.52c.98.8 1.94.97 2.57.97 1.06 0 2.06-.48 2.75-1.3.81-.99 1.1-2.34.83-3.83l-7.8-47.07v-.06c-.2-1-.72-1.9-1.5-2.55L84.3 30.33l-11.34-9.3c-6-4.9-6-4.9-7.16-4.9z"/></g><path d="M69.77 113.18H58.4l-.97-11.8A6.04 6.04 0 0160.7 96a7.2 7.2 0 016.4-.07l.23.1c2.09 1.01 3.4 3.13 3.4 5.44l-.96 11.71z"/></g></svg>